<svg id="Capa_1" enable-background="new 0 0 512 512" height="512" viewBox="0 0 512 512" width="512" xmlns="http://www.w3.org/2000/svg" xmlns:xlink="http://www.w3.org/1999/xlink"><linearGradient id="lg1"><stop offset="0" stop-color="#ff4747"/><stop offset="1" stop-color="#ff9ceb"/></linearGradient><linearGradient id="SVGID_1_" gradientUnits="userSpaceOnUse" x1="74.98" x2="437.019" xlink:href="#lg1" y1="437.019" y2="74.981"/><radialGradient id="SVGID_2_" cx="256" cy="256" gradientUnits="userSpaceOnUse" r="256"><stop offset="0" stop-color="#ff2f2b"/><stop offset="1" stop-color="#ff9ceb" stop-opacity="0"/></radialGradient><linearGradient id="lg2"><stop offset="0" stop-color="#ffa9d4"/><stop offset=".2953" stop-color="#ffc6e3"/><stop offset=".7601" stop-color="#ffeff7"/><stop offset="1" stop-color="#fff"/></linearGradient><linearGradient id="SVGID_3_" gradientUnits="userSpaceOnUse" x1="-14.939" x2="435.933" xlink:href="#lg2" y1="603.28" y2="152.408"/><linearGradient id="SVGID_4_" gradientUnits="userSpaceOnUse" x1="-13.176" x2="450.038" xlink:href="#lg2" y1="503.809" y2="40.595"/><linearGradient id="SVGID_5_" gradientUnits="userSpaceOnUse" x1="-42.573" x2="354.778" xlink:href="#lg2" y1="691.294" y2="293.943"/><linearGradient id="SVGID_6_" gradientUnits="userSpaceOnUse" x1="-42.361" x2="393.025" xlink:href="#lg2" y1="653.197" y2="217.811"/><linearGradient id="SVGID_7_" gradientUnits="userSpaceOnUse" x1="89.197" x2="528.804" xlink:href="#lg2" y1="476.354" y2="36.748"/><linearGradient id="SVGID_8_" gradientUnits="userSpaceOnUse" x1="96.881" x2="618.279" xlink:href="#lg2" y1="377.621" y2="-143.777"/><linearGradient id="SVGID_9_" gradientUnits="userSpaceOnUse" x1="90.537" x2="396.095" xlink:href="#lg2" y1="467.663" y2="162.105"/><linearGradient id="SVGID_10_" gradientUnits="userSpaceOnUse" x1="83.854" x2="408.032" xlink:href="#lg2" y1="398.035" y2="73.858"/><linearGradient id="SVGID_11_" gradientUnits="userSpaceOnUse" x1="166.761" x2="306.348" xlink:href="#lg1" y1="192.33" y2="52.744"/><linearGradient id="SVGID_12_" gradientUnits="userSpaceOnUse" x1="188.357" x2="324.407" xlink:href="#lg2" y1="126.883" y2="-9.166"/><linearGradient id="SVGID_13_" gradientUnits="userSpaceOnUse" x1="190.68" x2="325.386" xlink:href="#lg2" y1="154.762" y2="20.055"/><linearGradient id="SVGID_14_" gradientUnits="userSpaceOnUse" x1="195.741" x2="291.877" xlink:href="#lg1" y1="302.522" y2="206.386"/><linearGradient id="SVGID_15_" gradientUnits="userSpaceOnUse" x1="213.907" x2="313.123" xlink:href="#lg1" y1="345.692" y2="246.476"/><linearGradient id="SVGID_16_" gradientUnits="userSpaceOnUse" x1="196.66" x2="290.945" xlink:href="#lg1" y1="269.652" y2="175.368"/><linearGradient id="SVGID_17_" gradientUnits="userSpaceOnUse" x1="220.155" x2="285.505" xlink:href="#lg1" y1="246.283" y2="180.933"/><g><circle cx="256" cy="256" fill="url(#SVGID_1_)" r="256"/><circle cx="256" cy="256" fill="url(#SVGID_2_)" r="256"/><path d="m346.889 81.777c-17.673-.861-35.346-1.471-53.019-1.83-1.661 122.656-4.481 245.434-7.87 368.299 20-.422 40-1.266 60-2.531 16.544-1.078 30.384-15.69 30.823-32.215 2.524-100 2.853-200 .988-300-.325-16.526-14.209-30.875-30.922-31.723z" fill="url(#SVGID_3_)"/><path d="m316.412 416.735c1.294-104.422 1.434-208.844.422-313.266-.131-12.647-10.424-23.26-22.963-23.522-42.92-.872-85.84-.261-128.759 1.83-16.713.846-30.597 15.197-30.922 31.723-1.866 100-1.536 200 .988 300 .438 16.523 14.279 31.136 30.823 32.215 40 2.531 80 3.375 120 2.531 16.544-.361 30.18-14.657 30.411-31.511z" fill="url(#SVGID_4_)"/><path d="m347.877 324.402c-30.49-14.391-61.152-29.59-91.877-44.965 20.483 46.125 40.842 92.172 60.411 137.297 10.068-.359 20.137-.809 30.206-1.348.568-30.327.988-60.655 1.26-90.984z" fill="url(#SVGID_5_)"/><path d="m317.449 279.203c-51.248 15.672-102.419 31.324-153.325 45.199.272 30.328.691 60.656 1.259 90.984 50.343 2.695 100.686 3.145 151.029 1.348.567-45.843.913-91.687 1.037-137.531z" fill="url(#SVGID_6_)"/><path d="m347.728 142.434c-10.192-.305-20.384-.559-30.576-.762-20.17 30.156-40.653 60.891-61.152 91.641 20.5 30.75 41.015 61.516 61.251 91.734 10.209-.172 20.417-.387 30.625-.645.544-60.656.494-121.312-.148-181.968z" fill="url(#SVGID_7_)"/><path d="m164.272 142.434c-.642 60.656-.691 121.313-.148 181.969 51.042 1.289 102.085 1.504 153.128.645.362-61.125.329-122.25-.099-183.375-50.961-1.017-101.921-.763-152.881.761z" fill="url(#SVGID_8_)"/><path d="m332.564 157.243c-5.104-.107-10.209-.204-15.313-.29-20.266 25.125-40.752 50.734-61.251 76.359 20.499 25.625 41.012 51.266 61.333 76.453 5.111-.07 10.222-.149 15.333-.237.309-50.761.275-101.523-.102-152.285z" fill="url(#SVGID_9_)"/><path d="m179.436 157.243c-.377 50.762-.411 101.523-.103 152.285 46 .791 92 .87 138 .237.247-50.938.219-101.875-.082-152.813-45.938-.772-91.876-.675-137.815.291z" fill="url(#SVGID_10_)"/><path d="m210.375 103.1c.032-4.229 3.458-7.739 7.652-7.814 25.316-.464 50.631-.464 75.947 0 4.194.078 7.62 3.585 7.652 7.814.032 4.23-3.354 7.592-7.559 7.524-2.538-.041-5.075-.079-7.613-.112-10.174-5.25-20.326-10.449-30.453-15.574-10.126 5.125-20.278 10.324-30.453 15.574-2.538.033-5.075.071-7.613.112-4.206.068-7.592-3.293-7.56-7.524z" fill="url(#SVGID_11_)"/><path d="m233.55 33.615c-4.168.066-7.573 3.601-7.605 7.866-.16 23.011-.293 46.02-.398 69.031 10.151-.133 20.302-.199 30.453-.199 2.555-25.625 5.08-51.246 7.55-76.855-10-.053-20-.001-30 .157z" fill="url(#SVGID_12_)"/><path d="m278.45 33.615c-4.967-.079-9.933-.131-14.9-.157-4.168-.021-7.548 3.444-7.55 7.719v69.136c10.151 0 20.302.066 30.453.199-.105-23.01-.237-46.02-.398-69.031-.031-4.266-3.436-7.8-7.605-7.866z" fill="url(#SVGID_13_)"/><path d="m225.259 264.027c10.247.023 20.494.035 30.741.035-10.247 10.25-20.486 20.488-30.7 30.668-10.233-.055-20.466-.137-30.7-.246-.068-16.859 13.68-30.48 30.659-30.457z" fill="url(#SVGID_14_)"/><path d="m256 264.063c10.247 0 20.494-.011 30.741-.035 16.979-.023 30.727 13.598 30.658 30.457-30.699.328-61.399.41-92.099.246-.036-16.946 13.72-30.663 30.7-30.668z" fill="url(#SVGID_15_)"/><path d="m294.417 210.323c.03 21.157-17.191 38.352-38.417 38.364-21.226-.013-38.447-17.206-38.417-38.364.038-21.155 17.258-38.501 38.417-38.511 21.158.01 38.379 17.357 38.417 38.511z" fill="url(#SVGID_16_)"/><path d="m263.687 233.313c-21.229-.014-38.438-17.188-38.4-38.368.005-3.121.391-6.154 1.101-9.063-5.485 6.665-8.792 15.178-8.805 24.441-.03 21.159 17.192 38.353 38.417 38.364 18.099-.003 33.279-12.527 37.341-29.318-7.04 8.507-17.712 13.946-29.654 13.944z" fill="url(#SVGID_17_)"/></g></svg>